<?xml version="1.0" encoding="utf-8"?>
<!-- Generator: Adobe Illustrator 16.2.0, SVG Export Plug-In . SVG Version: 6.00 Build 0)  -->
<!DOCTYPE svg PUBLIC "-//W3C//DTD SVG 1.0//EN" "http://www.w3.org/TR/2001/REC-SVG-20010904/DTD/svg10.dtd">
<svg version="1.0" id="Layer_1" xmlns="http://www.w3.org/2000/svg" xmlns:xlink="http://www.w3.org/1999/xlink" x="0px" y="0px"
	 width="210px" height="50px" viewBox="0 0 210 50" enable-background="new 0 0 210 50" xml:space="preserve">
<rect x="1.5" y="1.5" fill="none" stroke="#3C6CB4" stroke-width="3" stroke-miterlimit="10" width="207" height="47"/>
<g>
	<path fill="#3C6CB4" d="M25,24.999C25,21.417,27.646,19,31.124,19c2.731,0,4.207,1.583,4.937,3.096L33.55,23.33
		c-0.373-0.922-1.34-1.687-2.426-1.687c-1.849,0-3.155,1.443-3.155,3.355c0,1.897,1.306,3.356,3.155,3.356
		c1.085,0,2.053-0.764,2.426-1.686l2.511,1.217C35.331,29.365,33.855,31,31.124,31C27.646,31,25,28.564,25,24.999z"/>
	<path fill="#3C6CB4" d="M37.759,24.999c0-3.53,2.596-5.999,6.056-5.999c3.461,0,6.039,2.469,6.039,5.999
		c0,3.532-2.578,6.001-6.039,6.001C40.355,31,37.759,28.531,37.759,24.999z M46.886,24.999c0-1.895-1.205-3.355-3.071-3.355
		s-3.087,1.461-3.087,3.355c0,1.878,1.221,3.356,3.087,3.356S46.886,26.877,46.886,24.999z"/>
	<path fill="#3C6CB4" d="M59.001,30.791l-1.9-3.895h-1.493v3.895H52.69v-11.6h5.666c2.511,0,3.936,1.704,3.936,3.86
		c0,2.019-1.188,3.097-2.256,3.478l2.307,4.262H59.001z M59.323,23.035c0-0.801-0.627-1.235-1.408-1.235h-2.307v2.487h2.307
		C58.696,24.287,59.323,23.852,59.323,23.035z"/>
	<path fill="#3C6CB4" d="M65.264,30.791v-11.6h8.295V21.8h-5.378v1.809h5.259v2.608h-5.259v1.967h5.378v2.607H65.264z"/>
	<path fill="#3C6CB4" d="M79.702,30.791v-4.678l-4.292-6.922h3.292l2.459,4.277l2.426-4.277h3.308l-4.275,6.922v4.678H79.702z"/>
	<path fill="#3C6CB4" d="M94.209,24.999c0-3.687,2.749-5.999,6.124-5.999c2.528,0,4.055,1.374,4.835,2.817l-2.442,1.304
		c-0.424-0.765-1.29-1.478-2.393-1.478c-1.849,0-3.155,1.443-3.155,3.355c0,1.897,1.306,3.356,3.155,3.356
		c0.832,0,1.68-0.348,2.086-0.695v-0.904h-2.544V24.13h5.463v4.61c-1.205,1.373-2.867,2.26-5.005,2.26
		C96.958,31,94.209,28.688,94.209,24.999z"/>
	<path fill="#3C6CB4" d="M108.41,30.791v-11.6h2.92v11.6H108.41z"/>
	<path fill="#3C6CB4" d="M122.424,30.791l-4.783-6.713v6.713h-2.918v-11.6h3.004l4.578,6.383v-6.383h2.936v11.6H122.424z"/>
	<path fill="#3C6CB4" d="M136.338,30.791l-4.783-6.713v6.713h-2.92v-11.6h3.004l4.58,6.383v-6.383h2.936v11.6H136.338z"/>
	<path fill="#3C6CB4" d="M142.549,30.791v-11.6h2.918v11.6H142.549z"/>
	<path fill="#3C6CB4" d="M151.914,30.791l-4.258-11.6h3.309l2.799,8.365l2.781-8.365h3.309l-4.258,11.6H151.914z"/>
	<path fill="#3C6CB4" d="M168.982,30.791l-0.559-1.67h-4.461l-0.561,1.67h-3.309l4.258-11.6h3.682l4.258,11.6H168.982z
		 M166.201,22.147l-1.441,4.366h2.865L166.201,22.147z"/>
	<path fill="#3C6CB4" d="M182.184,30.791l-4.783-6.713v6.713h-2.918v-11.6h3.002l4.58,6.383v-6.383H185v11.6H182.184z"/>
</g>
<g>
</g>
<g>
</g>
<g>
</g>
<g>
</g>
<g>
</g>
<g>
</g>
</svg>
